<?xml version="1.0" encoding="UTF-8"?>
<svg id="OBJECTS" xmlns="http://www.w3.org/2000/svg" viewBox="0 0 447.88 410.76">
  <defs>
    <style>
      .cls-1 {
        fill: #ccd6e5;
      }

      .cls-1, .cls-2 {
        opacity: .75;
        stroke: #4d2557;
        stroke-linecap: round;
        stroke-linejoin: round;
        stroke-width: 3px;
      }

      .cls-3 {
        font-family: Quicksand-Bold, Quicksand;
        font-weight: 700;
      }

      .cls-3, .cls-4 {
        fill: #4d2557;
      }

      .cls-5 {
        letter-spacing: 0em;
      }

      .cls-5, .cls-6, .cls-7, .cls-8 {
        fill: #d886af;
      }

      .cls-5, .cls-7, .cls-8 {
        font-family: Quicksand-Regular, Quicksand;
      }

      .cls-9 {
        opacity: .5;
      }

      .cls-10 {
        font-size: 82px;
      }

      .cls-11 {
        opacity: .2;
      }

      .cls-4, .cls-6, .cls-12 {
        stroke-width: 0px;
      }

      .cls-12 {
        fill: #94a3b2;
      }

      .cls-8 {
        letter-spacing: 0em;
      }

      .cls-2 {
        fill: #e7eef9;
      }
    </style>
  </defs>
  <text class="cls-10" transform="translate(0 385.91)"><tspan class="cls-3" x="0" y="0">BOOK</tspan><tspan class="cls-5" x="231.89" y="0">B</tspan><tspan class="cls-8" x="285.27" y="0">L</tspan><tspan class="cls-7" x="328.08" y="0">OG</tspan></text>
  <g>
    <g>
      <g>
        <path class="cls-1" d="m176.04,2.28c-19.21-1.98-38.58.1-57.65,3.18-22.72,3.67-47.61,7.74-67.44-3.93,1.25,55.13,1.3,110.29.81,165.44-.08,9-.03,18.55,4.69,26.21,4.98,8.1,14.3,12.53,23.53,14.79,16.28,3.98,33.37,2.52,50,.48,16.64-2.05,33.41-4.67,50.09-2.93,16.67,1.74,33.61,8.46,43.78,21.78.17-9.67,0-204.46,0-204.46,0,0-20.02-17.68-47.82-20.55Z"/>
        <path class="cls-6" d="m44.6,15.87v157.96s-7.18,44.18,48.6,46.95c55.78,2.76,85.62-21.86,122.61,9.39,0,0-28.06-14.09-73.46-2.88-35.13,8.68-96.81,15.96-109.06-20.2,0,0-3.61-14.48-3.61-35.47V13.66l14.91,2.21Z"/>
        <path class="cls-4" d="m23.1,24.09v164.24s-2.26,36.54,27.85,46.05c0,0-36.31-3.78-36.31-46.05V22.83l8.45,1.26Z"/>
      </g>
      <g>
        <path class="cls-2" d="m271.83,2.28c19.21-1.98,38.58.1,57.65,3.18,22.72,3.67,47.61,7.74,67.44-3.93-1.25,55.13-1.3,110.29-.81,165.44.08,9,.03,18.55-4.69,26.21-4.98,8.1-14.3,12.53-23.53,14.79-16.28,3.98-33.37,2.52-50,.48-16.64-2.05-33.41-4.67-50.09-2.93-16.67,1.74-33.61,8.46-43.79,21.78-.17-9.67,0-204.46,0-204.46,0,0,20.02-17.68,47.82-20.55Z"/>
        <path class="cls-6" d="m403.28,15.87v157.96s7.18,44.18-48.6,46.95c-55.78,2.76-85.62-21.86-122.61,9.39,0,0,28.06-14.09,73.46-2.88,35.13,8.68,96.81,15.96,109.06-20.2,0,0,3.61-14.48,3.61-35.47V13.66l-14.91,2.21Z"/>
        <path class="cls-4" d="m424.78,24.09v164.24s2.26,36.54-27.85,46.05c0,0,36.31-3.78,36.31-46.05V22.83l-8.45,1.26Z"/>
      </g>
    </g>
    <path class="cls-4" d="m95.64,239.33s25.91-2.26,49.29-8.05c25.47-6.32,63.1-5.2,79,8.33v9.16s-20.86-15.21-58.57-12.52c-27.75,1.98-42.62,6.81-69.73,3.08Z"/>
    <path class="cls-4" d="m352.23,239.33s-25.91-2.26-49.29-8.05c-25.47-6.32-63.1-5.2-79,8.33v9.16s20.86-15.21,58.57-12.52c27.75,1.98,42.62,6.81,69.73,3.08Z"/>
    <path class="cls-4" d="m204.33,240.07c.35.1,29.72,36.61,0,70.54,0,0,40.79-20.62,35.94-72.45l-14.1,4.14-21.84-2.23Z"/>
    <g class="cls-9">
      <path class="cls-12" d="m204.02,46.22c-.49,0-.99-.12-1.46-.37-8.97-4.75-34.05-14.93-73.01-6.87-26.04,5.4-42.35,5.09-51.46,3.89-1.71-.23-2.92-1.8-2.69-3.51.22-1.72,1.82-2.9,3.51-2.69,8.63,1.15,24.2,1.4,49.37-3.81,39.48-8.17,65.32,1.17,77.21,7.47,1.53.81,2.11,2.7,1.3,4.23-.56,1.06-1.65,1.67-2.77,1.67Z"/>
      <path class="cls-12" d="m204.02,73.97c-.49,0-.99-.12-1.46-.37-8.98-4.75-34.06-14.93-73.01-6.87-26.04,5.4-42.35,5.09-51.46,3.89-1.71-.23-2.92-1.8-2.69-3.51.22-1.72,1.82-2.9,3.51-2.69,8.62,1.14,24.19,1.4,49.37-3.81,39.48-8.17,65.32,1.18,77.21,7.47,1.53.81,2.11,2.7,1.3,4.23-.56,1.06-1.65,1.67-2.77,1.67Z"/>
      <path class="cls-12" d="m204.02,101.71c-.49,0-.99-.12-1.46-.37-8.97-4.75-34.05-14.93-73.01-6.87-26.04,5.39-42.35,5.09-51.46,3.89-1.71-.23-2.92-1.8-2.69-3.51.22-1.72,1.82-2.91,3.51-2.69,8.63,1.15,24.2,1.4,49.37-3.81,39.48-8.17,65.32,1.18,77.21,7.47,1.53.81,2.11,2.7,1.3,4.23-.56,1.06-1.65,1.67-2.77,1.67Z"/>
      <path class="cls-12" d="m204.02,129.45c-.49,0-.99-.12-1.46-.37-8.97-4.75-34.05-14.94-73.01-6.87-26.04,5.4-42.36,5.1-51.46,3.89-1.71-.23-2.92-1.8-2.69-3.51.22-1.72,1.82-2.91,3.51-2.69,8.62,1.14,24.18,1.4,49.37-3.81,39.48-8.17,65.32,1.18,77.21,7.47,1.53.81,2.11,2.7,1.3,4.23-.56,1.06-1.65,1.67-2.77,1.67Z"/>
      <path class="cls-12" d="m204.02,157.19c-.49,0-.99-.12-1.46-.37-8.97-4.75-34.05-14.94-73.01-6.87-26.05,5.4-42.38,5.09-51.49,3.88-1.72-.23-2.92-1.8-2.69-3.52.22-1.72,1.83-2.9,3.51-2.69,8.63,1.14,24.2,1.41,49.41-3.81,39.48-8.17,65.32,1.17,77.21,7.47,1.53.81,2.11,2.7,1.3,4.23-.56,1.06-1.65,1.67-2.77,1.67Z"/>
      <path class="cls-12" d="m204.02,184.93c-.49,0-.99-.12-1.46-.37-8.97-4.75-34.05-14.93-73.01-6.87-26.09,5.4-42.42,5.09-51.53,3.88-1.71-.23-2.92-1.8-2.69-3.52.22-1.72,1.78-2.9,3.52-2.69,8.62,1.15,24.2,1.42,49.43-3.8,39.48-8.17,65.32,1.17,77.21,7.47,1.53.81,2.11,2.7,1.3,4.23-.56,1.06-1.65,1.67-2.77,1.67Z"/>
    </g>
    <g class="cls-11">
      <path class="cls-12" d="m244.43,46.22c-1.12,0-2.21-.61-2.77-1.67-.81-1.53-.23-3.42,1.3-4.23,11.89-6.3,37.73-15.65,77.21-7.47,25.18,5.21,40.74,4.94,49.37,3.81,1.67-.21,3.29.98,3.51,2.69.23,1.72-.98,3.29-2.69,3.51-9.1,1.2-25.43,1.51-51.46-3.89-38.96-8.07-64.04,2.12-73,6.87-.47.25-.97.37-1.46.37Z"/>
      <path class="cls-12" d="m244.43,73.97c-1.12,0-2.21-.61-2.77-1.67-.81-1.53-.23-3.42,1.3-4.23,11.89-6.3,37.73-15.65,77.21-7.47,25.19,5.21,40.75,4.95,49.38,3.81,1.67-.21,3.29.98,3.51,2.69.23,1.71-.98,3.29-2.69,3.51-9.1,1.2-25.41,1.5-51.46-3.89-38.95-8.07-64.04,2.12-73,6.87-.47.25-.97.37-1.46.37Z"/>
      <path class="cls-12" d="m244.43,101.71c-1.12,0-2.21-.61-2.77-1.67-.81-1.53-.23-3.42,1.3-4.23,11.89-6.3,37.73-15.65,77.21-7.47,25.17,5.21,40.75,4.96,49.38,3.81,1.67-.21,3.29.98,3.51,2.69.23,1.72-.98,3.29-2.69,3.51-9.11,1.2-25.43,1.5-51.46-3.89-38.96-8.07-64.04,2.12-73,6.87-.47.25-.97.37-1.46.37Z"/>
      <path class="cls-12" d="m244.43,129.45c-1.12,0-2.21-.61-2.77-1.67-.81-1.53-.23-3.42,1.3-4.23,11.89-6.3,37.73-15.64,77.21-7.47,25.19,5.21,40.75,4.95,49.38,3.81,1.67-.21,3.29.98,3.51,2.69.23,1.71-.98,3.29-2.69,3.51-9.1,1.2-25.41,1.5-51.46-3.89-38.96-8.06-64.04,2.12-73,6.87-.47.25-.97.37-1.46.37Z"/>
      <path class="cls-12" d="m244.43,157.19c-1.12,0-2.21-.61-2.77-1.67-.81-1.53-.23-3.42,1.3-4.23,11.89-6.3,37.73-15.65,77.21-7.47,25.2,5.22,40.78,4.95,49.41,3.81,1.69-.21,3.29.98,3.51,2.69.23,1.72-.98,3.29-2.69,3.52-9.1,1.21-25.44,1.51-51.49-3.88-38.96-8.06-64.04,2.12-73,6.87-.47.25-.97.37-1.46.37Z"/>
      <path class="cls-12" d="m244.43,184.93c-1.12,0-2.21-.61-2.77-1.67-.81-1.53-.23-3.42,1.3-4.23,11.89-6.3,37.73-15.64,77.21-7.47,25.23,5.22,40.81,4.94,49.43,3.8,1.74-.21,3.29.98,3.52,2.69.23,1.72-.97,3.29-2.69,3.52-9.1,1.21-25.43,1.53-51.53-3.88-38.96-8.07-64.04,2.12-73,6.87-.47.25-.97.37-1.46.37Z"/>
    </g>
  </g>
</svg>